<svg xmlns="http://www.w3.org/2000/svg" version="1.1" xmlns:xlink="http://www.w3.org/1999/xlink" xmlns:svgjs="http://svgjs.dev/svgjs" width="500" height="500"><svg xmlns="http://www.w3.org/2000/svg" xmlns:xlink="http://www.w3.org/1999/xlink" width="500" zoomAndPan="magnify" viewBox="0 0 375 374.999991" height="500" preserveAspectRatio="xMidYMid meet" version="1.0"><defs><g></g><clipPath id="SvgjsClipPath1037"><path d="M 6.738281 8.910156 L 369 8.910156 L 369 366.089844 L 6.738281 366.089844 Z M 6.738281 8.910156 " clip-rule="nonzero"></path></clipPath><clipPath id="SvgjsClipPath1036"><path d="M 50.238281 8.910156 L 324.761719 8.910156 C 348.785156 8.910156 368.261719 28.386719 368.261719 52.410156 L 368.261719 322.589844 C 368.261719 346.613281 348.785156 366.089844 324.761719 366.089844 L 50.238281 366.089844 C 26.214844 366.089844 6.738281 346.613281 6.738281 322.589844 L 6.738281 52.410156 C 6.738281 28.386719 26.214844 8.910156 50.238281 8.910156 Z M 50.238281 8.910156 " clip-rule="nonzero"></path></clipPath></defs><g clip-path="url(#757b765e04)"><g clip-path="url(#458ecd5a42)"><path fill="#3b81f6" d="M 6.738281 8.910156 L 368.101562 8.910156 L 368.101562 366.089844 L 6.738281 366.089844 Z M 6.738281 8.910156 " fill-opacity="1" fill-rule="nonzero"></path></g></g><g fill="#3b81f6" fill-opacity="1"><g transform="translate(184.112742, 190.411231)"><g><path d="M 4.828125 -1.125 L 5.734375 -4.75 L 6.546875 -4.75 L 5.171875 0 L 4.515625 0 L 3.359375 -3.609375 L 2.234375 0 L 1.5625 0 L 0.1875 -4.75 L 1 -4.75 L 1.9375 -1.203125 L 3.046875 -4.75 L 3.703125 -4.75 Z M 4.828125 -1.125 "></path></g></g></g><g fill="#ffffff" fill-opacity="1"><g transform="translate(67.99199, 256.317262)"><g><path d="M 38.796875 0 L 12.4375 0 L 12.4375 -139.640625 L 38.796875 -139.640625 L 38.796875 -81.8125 L 98.640625 -81.8125 L 98.640625 -139.640625 L 125 -139.640625 L 125 0 L 98.640625 0 L 98.640625 -58.203125 L 38.796875 -58.203125 Z M 38.796875 0 "></path></g></g></g><g fill="#ffffff" fill-opacity="1"><g transform="translate(196.097752, 256.317262)"><g><path d="M 47.03125 2.015625 C 31.175781 2.015625 20.5 -3.65625 15 -15 C 13.414062 -18.414062 12.285156 -22.164062 11.609375 -26.25 C 10.941406 -30.34375 10.609375 -36.113281 10.609375 -43.5625 L 10.609375 -102.671875 L 35.328125 -102.671875 L 35.328125 -43.375 C 35.328125 -38.125 35.722656 -33.882812 36.515625 -30.65625 C 37.304688 -27.425781 38.554688 -24.832031 40.265625 -22.875 C 43.191406 -19.820312 47.519531 -18.296875 53.25 -18.296875 C 60.332031 -18.296875 65.582031 -20.375 69 -24.53125 C 71.070312 -26.96875 72.566406 -30.226562 73.484375 -34.3125 C 74.398438 -38.40625 74.859375 -43.804688 74.859375 -50.515625 L 74.859375 -102.671875 L 99.5625 -102.671875 L 99.5625 0 L 74.859375 0 L 74.859375 -13 C 71.078125 -7.75 67.019531 -3.929688 62.6875 -1.546875 C 58.351562 0.828125 53.132812 2.015625 47.03125 2.015625 Z M 47.03125 2.015625 "></path></g></g></g></svg><style>@media (prefers-color-scheme: light) { :root { filter: none; } }
@media (prefers-color-scheme: dark) { :root { filter: none; } }
</style></svg>