{
  "accessors": [
    {
      "bufferView": 2,
      "componentType": 5126,
      "count": 7016,
      "max": [
        68.10273742675781,
        277.08453369140625,
        267.9559020996094
      ],
      "min": [
        -123.34906005859375,
        -109.03875732421875,
        5.843043327331543
      ],
      "type": "VEC3"
    },
    {
      "bufferView": 2,
      "byteOffset": 84192,
      "componentType": 5126,
      "count": 7016,
      "max": [
        0.9999954700469971,
        0.9999997019767761,
        0.9999739527702332
      ],
      "min": [
        -1.0,
        -0.9999997615814209,
        -0.9999483227729797
      ],
      "type": "VEC3"
    },
    {
      "bufferView": 3,
      "componentType": 5126,
      "count": 7016,
      "max": [
        1.0,
        0.9999738931655884,
        0.9999997019767761,
        1.0
      ],
      "min": [
        -0.9993516802787781,
        -0.9999483823776245,
        -0.9999997019767761,
        -1.0
      ],
      "type": "VEC4"
    },
    {
      "bufferView": 1,
      "componentType": 5126,
      "count": 7016,
      "max": [
        0.9973000288009644,
        0.9970999956130981
      ],
      "min": [
        -0.9954000115394592,
        0.0026000000070780516
      ],
      "type": "VEC2"
    },
    {
      "bufferView": 0,
      "componentType": 5125,
      "count": 33951,
      "type": "SCALAR"
    },
    {
      "bufferView": 2,
      "byteOffset": 168384,
      "componentType": 5126,
      "count": 1829,
      "max": [
        35.30927658081055,
        34.818084716796875,
        289.16107177734375
      ],
      "min": [
        -36.48139572143555,
        -65.39677429199219,
        186.9889678955078
      ],
      "type": "VEC3"
    },
    {
      "bufferView": 2,
      "byteOffset": 190332,
      "componentType": 5126,
      "count": 1829,
      "max": [
        0.9982403516769409,
        0.9992940425872803,
        0.9999661445617676
      ],
      "min": [
        -0.9961392283439636,
        -0.9995277523994446,
        -0.9985924959182739
      ],
      "type": "VEC3"
    },
    {
      "bufferView": 3,
      "byteOffset": 112256,
      "componentType": 5126,
      "count": 1829,
      "max": [
        0.999933660030365,
        0.9999428391456604,
        0.9981125593185425,
        1.0
      ],
      "min": [
        -0.9996291399002075,
        -0.995811402797699,
        -0.9987886548042297,
        -1.0
      ],
      "type": "VEC4"
    },
    {
      "bufferView": 1,
      "byteOffset": 56128,
      "componentType": 5126,
      "count": 1829,
      "max": [
        0.9977999925613403,
        0.996399998664856
      ],
      "min": [
        0.003599999938160181,
        0.0066999997943639755
      ],
      "type": "VEC2"
    },
    {
      "bufferView": 0,
      "byteOffset": 135804,
      "componentType": 5125,
      "count": 8970,
      "type": "SCALAR"
    }
  ],
  "asset": {
    "extras": {
      "author": "Henrique Naspolini (https://sketchfab.com/henriquedw)",
      "license": "CC-BY-NC-4.0 (http://creativecommons.org/licenses/by-nc/4.0/)",
      "source": "https://sketchfab.com/3d-models/xeno-raven-e444a88e999549d99eacb1ea0f8e04e4",
      "title": "Xeno Raven"
    },
    "generator": "Sketchfab-12.66.0",
    "version": "2.0"
  },
  "bufferViews": [
    {
      "buffer": 0,
      "byteLength": 171684,
      "name": "floatBufferViews",
      "target": 34963
    },
    {
      "buffer": 0,
      "byteLength": 70760,
      "byteOffset": 171684,
      "byteStride": 8,
      "name": "floatBufferViews",
      "target": 34962
    },
    {
      "buffer": 0,
      "byteLength": 212280,
      "byteOffset": 242444,
      "byteStride": 12,
      "name": "floatBufferViews",
      "target": 34962
    },
    {
      "buffer": 0,
      "byteLength": 141520,
      "byteOffset": 454724,
      "byteStride": 16,
      "name": "floatBufferViews",
      "target": 34962
    }
  ],
  "buffers": [
    {
      "byteLength": 596244,
      "uri": "scene.bin"
    }
  ],
  "images": [
    {
      "uri": "textures/07_-_Default_baseColor.png"
    },
    {
      "uri": "textures/07_-_Default_metallicRoughness.png"
    },
    {
      "uri": "textures/07_-_Default_normal.png"
    },
    {
      "uri": "textures/default_baseColor.png"
    },
    {
      "uri": "textures/default_metallicRoughness.png"
    },
    {
      "uri": "textures/default_normal.png"
    }
  ],
  "materials": [
    {
      "doubleSided": true,
      "name": "07_-_Default",
      "normalTexture": {
        "index": 2
      },
      "pbrMetallicRoughness": {
        "baseColorFactor": [
          0.31878810975609756,
          0.31878810975609756,
          0.31878810975609756,
          1.0
        ],
        "baseColorTexture": {
          "index": 0
        },
        "metallicFactor": 0.6358612804878049,
        "metallicRoughnessTexture": {
          "index": 1
        },
        "roughnessFactor": 0.21779725609756095
      }
    },
    {
      "doubleSided": true,
      "name": "default",
      "normalTexture": {
        "index": 5
      },
      "pbrMetallicRoughness": {
        "baseColorTexture": {
          "index": 3
        },
        "metallicRoughnessTexture": {
          "index": 4
        },
        "roughnessFactor": 0.2543826219512195
      }
    }
  ],
  "meshes": [
    {
      "name": "body_07 - Default_0",
      "primitives": [
        {
          "attributes": {
            "NORMAL": 1,
            "POSITION": 0,
            "TANGENT": 2,
            "TEXCOORD_0": 3
          },
          "indices": 4,
          "material": 0,
          "mode": 4
        }
      ]
    },
    {
      "name": "head_default_0",
      "primitives": [
        {
          "attributes": {
            "NORMAL": 6,
            "POSITION": 5,
            "TANGENT": 7,
            "TEXCOORD_0": 8
          },
          "indices": 9,
          "material": 1,
          "mode": 4
        }
      ]
    }
  ],
  "nodes": [
    {
      "children": [
        1
      ],
      "matrix": [
        1.0,
        0.0,
        0.0,
        0.0,
        0.0,
        2.220446049250313e-16,
        -1.0,
        0.0,
        0.0,
        1.0,
        2.220446049250313e-16,
        0.0,
        0.0,
        0.0,
        0.0,
        1.0
      ],
      "name": "Sketchfab_model"
    },
    {
      "children": [
        2
      ],
      "matrix": [
        1.0,
        0.0,
        0.0,
        0.0,
        0.0,
        0.0,
        1.0,
        0.0,
        0.0,
        -1.0,
        0.0,
        0.0,
        0.0,
        0.0,
        0.0,
        1.0
      ],
      "name": "49da11f1aafb41c5b81b8f5808aec52e.fbx"
    },
    {
      "children": [
        3,
        5
      ],
      "name": "RootNode"
    },
    {
      "children": [
        4
      ],
      "matrix": [
        1.0,
        0.0,
        0.0,
        0.0,
        0.0,
        2.220446049250313e-16,
        -1.0,
        0.0,
        0.0,
        1.0,
        2.220446049250313e-16,
        0.0,
        0.0,
        -6.432251930236816,
        -2.811626700349734e-07,
        1.0
      ],
      "name": "body"
    },
    {
      "mesh": 0,
      "name": "body_07 - Default_0"
    },
    {
      "children": [
        6
      ],
      "matrix": [
        1.0,
        0.0,
        0.0,
        0.0,
        0.0,
        2.220446049250313e-16,
        -1.0,
        0.0,
        0.0,
        1.0,
        2.220446049250313e-16,
        0.0,
        0.0,
        -6.432251930236816,
        -2.811626700349734e-07,
        1.0
      ],
      "name": "head"
    },
    {
      "mesh": 1,
      "name": "head_default_0"
    }
  ],
  "samplers": [
    {
      "magFilter": 9729,
      "minFilter": 9987,
      "wrapS": 10497,
      "wrapT": 10497
    }
  ],
  "scene": 0,
  "scenes": [
    {
      "name": "Sketchfab_Scene",
      "nodes": [
        0
      ]
    }
  ],
  "textures": [
    {
      "sampler": 0,
      "source": 0
    },
    {
      "sampler": 0,
      "source": 1
    },
    {
      "sampler": 0,
      "source": 2
    },
    {
      "sampler": 0,
      "source": 3
    },
    {
      "sampler": 0,
      "source": 4
    },
    {
      "sampler": 0,
      "source": 5
    }
  ]
}
