{
  "accessors": [
    {
      "bufferView": 2,
      "componentType": 5126,
      "count": 65532,
      "max": [
        2.384676933288574,
        5.552584171295166,
        4.903148174285889
      ],
      "min": [
        -3.7200400829315186,
        -5.306948184967041,
        2.3237709999084473
      ],
      "type": "VEC3"
    },
    {
      "bufferView": 2,
      "byteOffset": 786384,
      "componentType": 5126,
      "count": 65532,
      "max": [
        1.0,
        0.9999974966049194,
        1.0
      ],
      "min": [
        -1.0,
        -0.9999871253967285,
        -1.0
      ],
      "type": "VEC3"
    },
    {
      "bufferView": 1,
      "componentType": 5126,
      "count": 65532,
      "max": [
        0.9979270100593567,
        0.9997360110282898
      ],
      "min": [
        0.0005629999795928597,
        0.0005629999795928597
      ],
      "type": "VEC2"
    },
    {
      "bufferView": 0,
      "componentType": 5125,
      "count": 165582,
      "type": "SCALAR"
    },
    {
      "bufferView": 2,
      "byteOffset": 1572768,
      "componentType": 5126,
      "count": 65532,
      "max": [
        3.832448959350586,
        7.449253082275391,
        5.659224033355713
      ],
      "min": [
        -3.7200400829315186,
        -5.5520172119140625,
        0.02901500090956688
      ],
      "type": "VEC3"
    },
    {
      "bufferView": 2,
      "byteOffset": 2359152,
      "componentType": 5126,
      "count": 65532,
      "max": [
        1.0,
        0.9999996423721313,
        1.0
      ],
      "min": [
        -1.0,
        -0.9999997019767761,
        -1.0
      ],
      "type": "VEC3"
    },
    {
      "bufferView": 1,
      "byteOffset": 524256,
      "componentType": 5126,
      "count": 65532,
      "max": [
        0.9985190033912659,
        0.9997360110282898
      ],
      "min": [
        0.0005629999795928597,
        0.0005680000176653266
      ],
      "type": "VEC2"
    },
    {
      "bufferView": 0,
      "byteOffset": 662328,
      "componentType": 5125,
      "count": 164334,
      "type": "SCALAR"
    },
    {
      "bufferView": 2,
      "byteOffset": 3145536,
      "componentType": 5126,
      "count": 65532,
      "max": [
        3.8308799266815186,
        7.445671081542969,
        4.886356830596924
      ],
      "min": [
        0.19671300053596497,
        1.731462001800537,
        0.02901500090956688
      ],
      "type": "VEC3"
    },
    {
      "bufferView": 2,
      "byteOffset": 3931920,
      "componentType": 5126,
      "count": 65532,
      "max": [
        1.0,
        0.9999549984931946,
        1.0
      ],
      "min": [
        -0.9997460246086121,
        -0.999890923500061,
        -1.0
      ],
      "type": "VEC3"
    },
    {
      "bufferView": 1,
      "byteOffset": 1048512,
      "componentType": 5126,
      "count": 65532,
      "max": [
        0.9985190033912659,
        0.9997400045394897
      ],
      "min": [
        0.00024399999529123306,
        0.00024399999529123306
      ],
      "type": "VEC2"
    },
    {
      "bufferView": 0,
      "byteOffset": 1319664,
      "componentType": 5125,
      "count": 233526,
      "type": "SCALAR"
    },
    {
      "bufferView": 2,
      "byteOffset": 4718304,
      "componentType": 5126,
      "count": 65532,
      "max": [
        3.446368932723999,
        7.016973972320557,
        4.954730987548828
      ],
      "min": [
        -5.762570858001709,
        1.7054450511932373,
        -0.0002730000123847276
      ],
      "type": "VEC3"
    },
    {
      "bufferView": 2,
      "byteOffset": 5504688,
      "componentType": 5126,
      "count": 65532,
      "max": [
        0.9999918937683105,
        0.9999932050704956,
        1.0
      ],
      "min": [
        -0.9999261498451233,
        -0.9999850392341614,
        -1.0
      ],
      "type": "VEC3"
    },
    {
      "bufferView": 1,
      "byteOffset": 1572768,
      "componentType": 5126,
      "count": 65532,
      "max": [
        0.9984490275382996,
        0.9997410178184509
      ],
      "min": [
        0.00024399999529123306,
        0.00024399999529123306
      ],
      "type": "VEC2"
    },
    {
      "bufferView": 0,
      "byteOffset": 2253768,
      "componentType": 5125,
      "count": 227172,
      "type": "SCALAR"
    },
    {
      "bufferView": 2,
      "byteOffset": 6291072,
      "componentType": 5126,
      "count": 65534,
      "max": [
        0.6089299917221069,
        7.973512172698975,
        4.611155033111572
      ],
      "min": [
        -5.439022064208984,
        1.7045220136642456,
        0.03548600152134895
      ],
      "type": "VEC3"
    },
    {
      "bufferView": 2,
      "byteOffset": 7077480,
      "componentType": 5126,
      "count": 65534,
      "max": [
        1.0,
        1.0,
        1.0
      ],
      "min": [
        -1.0,
        -1.0,
        -1.0
      ],
      "type": "VEC3"
    },
    {
      "bufferView": 1,
      "byteOffset": 2097024,
      "componentType": 5126,
      "count": 65534,
      "max": [
        0.9984700083732605,
        0.9997550249099731
      ],
      "min": [
        0.00024399999529123306,
        0.00024399999529123306
      ],
      "type": "VEC2"
    },
    {
      "bufferView": 0,
      "byteOffset": 3162456,
      "componentType": 5125,
      "count": 233742,
      "type": "SCALAR"
    },
    {
      "bufferView": 2,
      "byteOffset": 7863888,
      "componentType": 5126,
      "count": 65532,
      "max": [
        0.6384469866752625,
        5.744020938873291,
        4.987654209136963
      ],
      "min": [
        -5.404601097106934,
        1.4867990016937256,
        0.46409401297569275
      ],
      "type": "VEC3"
    },
    {
      "bufferView": 2,
      "byteOffset": 8650272,
      "componentType": 5126,
      "count": 65532,
      "max": [
        1.0,
        1.0,
        1.0
      ],
      "min": [
        -1.0,
        -1.0,
        -1.0
      ],
      "type": "VEC3"
    },
    {
      "bufferView": 1,
      "byteOffset": 2621296,
      "componentType": 5126,
      "count": 65532,
      "max": [
        0.998170018196106,
        0.9997559785842896
      ],
      "min": [
        0.00024399999529123306,
        0.00024399999529123306
      ],
      "type": "VEC2"
    },
    {
      "bufferView": 0,
      "byteOffset": 4097424,
      "componentType": 5125,
      "count": 228540,
      "type": "SCALAR"
    },
    {
      "bufferView": 2,
      "byteOffset": 9436656,
      "componentType": 5126,
      "count": 65532,
      "max": [
        0.693871021270752,
        7.559552192687988,
        4.547993183135986
      ],
      "min": [
        -5.2944440841674805,
        -5.414485931396484,
        0.4640899896621704
      ],
      "type": "VEC3"
    },
    {
      "bufferView": 2,
      "byteOffset": 10223040,
      "componentType": 5126,
      "count": 65532,
      "max": [
        1.0,
        0.9999993443489075,
        0.9999987483024597
      ],
      "min": [
        -1.0,
        -0.9999997019767761,
        -0.9999988675117493
      ],
      "type": "VEC3"
    },
    {
      "bufferView": 1,
      "byteOffset": 3145552,
      "componentType": 5126,
      "count": 65532,
      "max": [
        0.9956430196762085,
        0.999737024307251
      ],
      "min": [
        0.0005629999795928597,
        0.0005629999795928597
      ],
      "type": "VEC2"
    },
    {
      "bufferView": 0,
      "byteOffset": 5011584,
      "componentType": 5125,
      "count": 244902,
      "type": "SCALAR"
    },
    {
      "bufferView": 2,
      "byteOffset": 11009424,
      "componentType": 5126,
      "count": 65532,
      "max": [
        0.6878550052642822,
        1.489096999168396,
        4.6111531257629395
      ],
      "min": [
        -5.439022064208984,
        -7.973513126373291,
        0.035482000559568405
      ],
      "type": "VEC3"
    },
    {
      "bufferView": 2,
      "byteOffset": 11795808,
      "componentType": 5126,
      "count": 65532,
      "max": [
        0.9999999403953552,
        1.0,
        1.0
      ],
      "min": [
        -0.9999999403953552,
        -1.0,
        -1.0
      ],
      "type": "VEC3"
    },
    {
      "bufferView": 1,
      "byteOffset": 3669808,
      "componentType": 5126,
      "count": 65532,
      "max": [
        0.998790979385376,
        0.9997379779815674
      ],
      "min": [
        0.00024399999529123306,
        0.00024399999529123306
      ],
      "type": "VEC2"
    },
    {
      "bufferView": 0,
      "byteOffset": 5991192,
      "componentType": 5125,
      "count": 241401,
      "type": "SCALAR"
    },
    {
      "bufferView": 2,
      "byteOffset": 12582192,
      "componentType": 5126,
      "count": 65532,
      "max": [
        2.0561089515686035,
        2.0442800521850586,
        5.295355796813965
      ],
      "min": [
        -2.180000066757202,
        -7.559553146362305,
        0.4960559904575348
      ],
      "type": "VEC3"
    },
    {
      "bufferView": 2,
      "byteOffset": 13368576,
      "componentType": 5126,
      "count": 65532,
      "max": [
        1.0,
        1.0,
        1.0
      ],
      "min": [
        -1.0,
        -0.9999993443489075,
        -1.0
      ],
      "type": "VEC3"
    },
    {
      "bufferView": 1,
      "byteOffset": 4194064,
      "componentType": 5126,
      "count": 65532,
      "max": [
        0.999750018119812,
        0.9997299909591675
      ],
      "min": [
        0.00024399999529123306,
        0.00024399999529123306
      ],
      "type": "VEC2"
    },
    {
      "bufferView": 0,
      "byteOffset": 6956796,
      "componentType": 5125,
      "count": 266562,
      "type": "SCALAR"
    },
    {
      "bufferView": 2,
      "byteOffset": 14154960,
      "componentType": 5126,
      "count": 65532,
      "max": [
        2.0561089515686035,
        1.9364310503005981,
        5.292006969451904
      ],
      "min": [
        -5.167431831359863,
        -5.74402379989624,
        0.4657039940357208
      ],
      "type": "VEC3"
    },
    {
      "bufferView": 2,
      "byteOffset": 14941344,
      "componentType": 5126,
      "count": 65532,
      "max": [
        1.0,
        1.0,
        1.0
      ],
      "min": [
        -1.0,
        -1.0,
        -1.0
      ],
      "type": "VEC3"
    },
    {
      "bufferView": 1,
      "byteOffset": 4718320,
      "componentType": 5126,
      "count": 65532,
      "max": [
        0.9995120167732239,
        0.9997479915618896
      ],
      "min": [
        0.0005629999795928597,
        0.0005629999795928597
      ],
      "type": "VEC2"
    },
    {
      "bufferView": 0,
      "byteOffset": 8023044,
      "componentType": 5125,
      "count": 233229,
      "type": "SCALAR"
    },
    {
      "bufferView": 2,
      "byteOffset": 15727728,
      "componentType": 5126,
      "count": 65532,
      "max": [
        -0.3078869879245758,
        -1.749493956565857,
        4.950719833374023
      ],
      "min": [
        -5.404601097106934,
        -5.485098838806152,
        0.4640899896621704
      ],
      "type": "VEC3"
    },
    {
      "bufferView": 2,
      "byteOffset": 16514112,
      "componentType": 5126,
      "count": 65532,
      "max": [
        0.9997113943099976,
        0.9995304346084595,
        0.9999653697013855
      ],
      "min": [
        -0.9998239278793335,
        -0.9999753832817078,
        -0.9999865293502808
      ],
      "type": "VEC3"
    },
    {
      "bufferView": 1,
      "byteOffset": 5242576,
      "componentType": 5126,
      "count": 65532,
      "max": [
        0.998537003993988,
        0.9997119903564453
      ],
      "min": [
        0.0005629999795928597,
        0.0005629999795928597
      ],
      "type": "VEC2"
    },
    {
      "bufferView": 0,
      "byteOffset": 8955960,
      "componentType": 5125,
      "count": 234195,
      "type": "SCALAR"
    },
    {
      "bufferView": 2,
      "byteOffset": 17300496,
      "componentType": 5126,
      "count": 65532,
      "max": [
        3.5811779499053955,
        -1.7054469585418701,
        4.954730033874512
      ],
      "min": [
        -5.762570858001709,
        -7.121622085571289,
        -0.0002770000137388706
      ],
      "type": "VEC3"
    },
    {
      "bufferView": 2,
      "byteOffset": 18086880,
      "componentType": 5126,
      "count": 65532,
      "max": [
        0.9998607635498047,
        0.9999797940254211,
        1.0
      ],
      "min": [
        -0.9999046921730042,
        -0.9999754428863525,
        -1.0
      ],
      "type": "VEC3"
    },
    {
      "bufferView": 1,
      "byteOffset": 5766832,
      "componentType": 5126,
      "count": 65532,
      "max": [
        0.9984189867973328,
        0.9997529983520508
      ],
      "min": [
        0.00024399999529123306,
        0.00024399999529123306
      ],
      "type": "VEC2"
    },
    {
      "bufferView": 0,
      "byteOffset": 9892740,
      "componentType": 5125,
      "count": 238521,
      "type": "SCALAR"
    },
    {
      "bufferView": 2,
      "byteOffset": 18873264,
      "componentType": 5126,
      "count": 65532,
      "max": [
        3.832448959350586,
        7.410861968994141,
        4.981179237365723
      ],
      "min": [
        -0.05564799904823303,
        -7.449254035949707,
        0.02901099994778633
      ],
      "type": "VEC3"
    },
    {
      "bufferView": 2,
      "byteOffset": 19659648,
      "componentType": 5126,
      "count": 65532,
      "max": [
        1.0,
        0.9999996423721313,
        1.0
      ],
      "min": [
        -1.0,
        -0.9999997019767761,
        -1.0
      ],
      "type": "VEC3"
    },
    {
      "bufferView": 1,
      "byteOffset": 6291088,
      "componentType": 5126,
      "count": 65532,
      "max": [
        0.998520016670227,
        0.999750018119812
      ],
      "min": [
        0.00024399999529123306,
        0.00024399999529123306
      ],
      "type": "VEC2"
    },
    {
      "bufferView": 0,
      "byteOffset": 10846824,
      "componentType": 5125,
      "count": 242583,
      "type": "SCALAR"
    },
    {
      "bufferView": 2,
      "byteOffset": 20446032,
      "componentType": 5126,
      "count": 10995,
      "max": [
        0.20693199336528778,
        7.523911952972412,
        3.1040189266204834
      ],
      "min": [
        -0.05125899985432625,
        5.858805179595947,
        0.49546098709106445
      ],
      "type": "VEC3"
    },
    {
      "bufferView": 2,
      "byteOffset": 20577972,
      "componentType": 5126,
      "count": 10995,
      "max": [
        0.9998887777328491,
        0.9999510049819946,
        0.9999722242355347
      ],
      "min": [
        -0.9999850392341614,
        -0.9995616674423218,
        -0.9997601509094238
      ],
      "type": "VEC3"
    },
    {
      "bufferView": 1,
      "byteOffset": 6815344,
      "componentType": 5126,
      "count": 10995,
      "max": [
        0.6633809804916382,
        0.9997519850730896
      ],
      "min": [
        0.0007070000283420086,
        0.0005789999850094318
      ],
      "type": "VEC2"
    },
    {
      "bufferView": 0,
      "byteOffset": 11817156,
      "componentType": 5125,
      "count": 40503,
      "type": "SCALAR"
    }
  ],
  "asset": {
    "extras": {
      "author": "vertexmonster (https://sketchfab.com/vertexmonster)",
      "license": "CC-BY-4.0 (http://creativecommons.org/licenses/by/4.0/)",
      "source": "https://sketchfab.com/3d-models/mechanical-spider-87e0a94c2e1f44b5b5c9d088f4d5f4ab",
      "title": "Mechanical Spider"
    },
    "generator": "Sketchfab-12.66.0",
    "version": "2.0"
  },
  "bufferViews": [
    {
      "buffer": 0,
      "byteLength": 11979168,
      "name": "floatBufferViews",
      "target": 34963
    },
    {
      "buffer": 0,
      "byteLength": 6903304,
      "byteOffset": 11979168,
      "byteStride": 8,
      "name": "floatBufferViews",
      "target": 34962
    },
    {
      "buffer": 0,
      "byteLength": 20709912,
      "byteOffset": 18882472,
      "byteStride": 12,
      "name": "floatBufferViews",
      "target": 34962
    }
  ],
  "buffers": [
    {
      "byteLength": 39592384,
      "uri": "scene.bin"
    }
  ],
  "materials": [
    {
      "doubleSided": true,
      "name": "spider_mech",
      "pbrMetallicRoughness": {
        "baseColorFactor": [
          0.13851885892054266,
          0.13851885892054266,
          0.13851885892054266,
          1.0
        ],
        "metallicFactor": 0.7360617225202347,
        "roughnessFactor": 0.49935665703183324
      }
    }
  ],
  "meshes": [
    {
      "name": "Object_0",
      "primitives": [
        {
          "attributes": {
            "NORMAL": 1,
            "POSITION": 0,
            "TEXCOORD_0": 2
          },
          "indices": 3,
          "material": 0,
          "mode": 4
        }
      ]
    },
    {
      "name": "Object_1",
      "primitives": [
        {
          "attributes": {
            "NORMAL": 5,
            "POSITION": 4,
            "TEXCOORD_0": 6
          },
          "indices": 7,
          "material": 0,
          "mode": 4
        }
      ]
    },
    {
      "name": "Object_2",
      "primitives": [
        {
          "attributes": {
            "NORMAL": 9,
            "POSITION": 8,
            "TEXCOORD_0": 10
          },
          "indices": 11,
          "material": 0,
          "mode": 4
        }
      ]
    },
    {
      "name": "Object_3",
      "primitives": [
        {
          "attributes": {
            "NORMAL": 13,
            "POSITION": 12,
            "TEXCOORD_0": 14
          },
          "indices": 15,
          "material": 0,
          "mode": 4
        }
      ]
    },
    {
      "name": "Object_4",
      "primitives": [
        {
          "attributes": {
            "NORMAL": 17,
            "POSITION": 16,
            "TEXCOORD_0": 18
          },
          "indices": 19,
          "material": 0,
          "mode": 4
        }
      ]
    },
    {
      "name": "Object_5",
      "primitives": [
        {
          "attributes": {
            "NORMAL": 21,
            "POSITION": 20,
            "TEXCOORD_0": 22
          },
          "indices": 23,
          "material": 0,
          "mode": 4
        }
      ]
    },
    {
      "name": "Object_6",
      "primitives": [
        {
          "attributes": {
            "NORMAL": 25,
            "POSITION": 24,
            "TEXCOORD_0": 26
          },
          "indices": 27,
          "material": 0,
          "mode": 4
        }
      ]
    },
    {
      "name": "Object_7",
      "primitives": [
        {
          "attributes": {
            "NORMAL": 29,
            "POSITION": 28,
            "TEXCOORD_0": 30
          },
          "indices": 31,
          "material": 0,
          "mode": 4
        }
      ]
    },
    {
      "name": "Object_8",
      "primitives": [
        {
          "attributes": {
            "NORMAL": 33,
            "POSITION": 32,
            "TEXCOORD_0": 34
          },
          "indices": 35,
          "material": 0,
          "mode": 4
        }
      ]
    },
    {
      "name": "Object_9",
      "primitives": [
        {
          "attributes": {
            "NORMAL": 37,
            "POSITION": 36,
            "TEXCOORD_0": 38
          },
          "indices": 39,
          "material": 0,
          "mode": 4
        }
      ]
    },
    {
      "name": "Object_10",
      "primitives": [
        {
          "attributes": {
            "NORMAL": 41,
            "POSITION": 40,
            "TEXCOORD_0": 42
          },
          "indices": 43,
          "material": 0,
          "mode": 4
        }
      ]
    },
    {
      "name": "Object_11",
      "primitives": [
        {
          "attributes": {
            "NORMAL": 45,
            "POSITION": 44,
            "TEXCOORD_0": 46
          },
          "indices": 47,
          "material": 0,
          "mode": 4
        }
      ]
    },
    {
      "name": "Object_12",
      "primitives": [
        {
          "attributes": {
            "NORMAL": 49,
            "POSITION": 48,
            "TEXCOORD_0": 50
          },
          "indices": 51,
          "material": 0,
          "mode": 4
        }
      ]
    },
    {
      "name": "Object_13",
      "primitives": [
        {
          "attributes": {
            "NORMAL": 53,
            "POSITION": 52,
            "TEXCOORD_0": 54
          },
          "indices": 55,
          "material": 0,
          "mode": 4
        }
      ]
    }
  ],
  "nodes": [
    {
      "children": [
        1
      ],
      "matrix": [
        1.0,
        0.0,
        0.0,
        0.0,
        0.0,
        2.220446049250313e-16,
        -1.0,
        0.0,
        0.0,
        1.0,
        2.220446049250313e-16,
        0.0,
        0.0,
        0.0,
        0.0,
        1.0
      ],
      "name": "Sketchfab_model"
    },
    {
      "children": [
        2,
        3,
        4,
        5,
        6,
        7,
        8,
        9,
        10,
        11,
        12,
        13,
        14,
        15
      ],
      "name": "spider_mech_cadmodel.obj.cleaner.materialmerger.gles"
    },
    {
      "mesh": 0,
      "name": "Object_2"
    },
    {
      "mesh": 1,
      "name": "Object_3"
    },
    {
      "mesh": 2,
      "name": "Object_4"
    },
    {
      "mesh": 3,
      "name": "Object_5"
    },
    {
      "mesh": 4,
      "name": "Object_6"
    },
    {
      "mesh": 5,
      "name": "Object_7"
    },
    {
      "mesh": 6,
      "name": "Object_8"
    },
    {
      "mesh": 7,
      "name": "Object_9"
    },
    {
      "mesh": 8,
      "name": "Object_10"
    },
    {
      "mesh": 9,
      "name": "Object_11"
    },
    {
      "mesh": 10,
      "name": "Object_12"
    },
    {
      "mesh": 11,
      "name": "Object_13"
    },
    {
      "mesh": 12,
      "name": "Object_14"
    },
    {
      "mesh": 13,
      "name": "Object_15"
    }
  ],
  "scene": 0,
  "scenes": [
    {
      "name": "Sketchfab_Scene",
      "nodes": [
        0
      ]
    }
  ]
}
